<mxfile host="Electron" agent="Mozilla/5.0 (X11; Linux x86_64) AppleWebKit/537.36 (KHTML, like Gecko) draw.io/26.2.2 Chrome/134.0.6998.178 Electron/35.1.2 Safari/537.36" version="26.2.2">
  <diagram id="9CW2ScFVpI8KVaLDl7ZK" name="Seite-1">
    <mxGraphModel dx="1391" dy="-282" grid="1" gridSize="10" guides="1" tooltips="1" connect="1" arrows="1" fold="1" page="1" pageScale="1" pageWidth="827" pageHeight="1169" math="0" shadow="0">
      <root>
        <mxCell id="0" />
        <mxCell id="1" parent="0" />
        <mxCell id="Ja7wQb0AtnYqL9Q85g7K-1" value="" style="strokeWidth=2;html=1;shape=mxgraph.flowchart.start_2;whiteSpace=wrap;" parent="1" vertex="1">
          <mxGeometry x="130" y="1190" width="40" height="40" as="geometry" />
        </mxCell>
        <mxCell id="Ja7wQb0AtnYqL9Q85g7K-3" value="Start" style="text;html=1;align=center;verticalAlign=middle;resizable=0;points=[];autosize=1;strokeColor=none;fillColor=none;" parent="1" vertex="1">
          <mxGeometry x="123" y="1194" width="50" height="30" as="geometry" />
        </mxCell>
        <mxCell id="Ja7wQb0AtnYqL9Q85g7K-4" value="&lt;div&gt;Eingabe: &lt;br&gt;&lt;/div&gt;&lt;div&gt;-aktuelles Alter&lt;/div&gt;&lt;div&gt;- Renteneintrittsalter&lt;/div&gt;&lt;div&gt;- Lebensalter&lt;/div&gt;&lt;div&gt;-pers. Inflation&lt;/div&gt;&lt;div&gt;- jöhrl Erhöhung vor der Rente&lt;/div&gt;&lt;div&gt;- jährl. Erhöhung in der Rente&lt;/div&gt;&lt;div&gt;- Ausgaben pro Monat&lt;/div&gt;&lt;div&gt;&lt;br&gt;&lt;/div&gt;&lt;div&gt;Einkommensströme&amp;nbsp;&lt;/div&gt;&lt;div&gt;in der Rente:&lt;/div&gt;&lt;div&gt;einmalig, regelmäßig, Erhöhung&lt;/div&gt;&lt;div&gt;- staatliche Rente&lt;/div&gt;&lt;div&gt;- Zusatzeinkommen 1&lt;/div&gt;&lt;div&gt;- Zusatzeinkommen 2&lt;/div&gt;&lt;div&gt;- Zusatzeinkommen 3&lt;/div&gt;&lt;div&gt;- Zusatzeinkommen 4&lt;/div&gt;&lt;div&gt;&lt;br&gt;&lt;/div&gt;&lt;div&gt;&lt;br&gt;&lt;/div&gt;&lt;div&gt;&lt;br&gt;&lt;/div&gt;" style="shape=parallelogram;html=1;strokeWidth=2;perimeter=parallelogramPerimeter;whiteSpace=wrap;rounded=1;arcSize=12;size=0.23;" parent="1" vertex="1">
          <mxGeometry x="1040" y="1190" width="280" height="295" as="geometry" />
        </mxCell>
      </root>
    </mxGraphModel>
  </diagram>
</mxfile>
